<?xml version="1.0" encoding="UTF-8"?>
<svg id="Capa_2" data-name="Capa 2" xmlns="http://www.w3.org/2000/svg" viewBox="0 0 781.15 135.15">
  <defs>
    <style>
      .cls-1 {
        fill: #fff;
      }
    </style>
  </defs>
  <g id="Capa_1-2" data-name="Capa 1">
    <g>
      <path class="cls-1" d="m777.96,80.12c-7.31.67-14.6,1.51-21.92,2.03-5.32.37-7.4-1.5-8.02-6.86-.59-5.12-.82-10.29-1.54-15.4-.21-1.48-1.56-2.81-2.39-4.21-1.22.91-3.03,1.56-3.56,2.76-1.73,3.95-3.51,8.01-4.32,12.21-1.84,9.56-11.64,16.49-21.39,14.6-5.91-1.15-7.52-3.62-6.23-9.56,1.51-6.93,6.6-10.96,11.86-14.97,3.72-2.83,7.42-1.66,11.28-.81,3.32.73,6.16-.17,7.15-3.66.95-3.35-1.09-5.47-4.05-6.57-7.26-2.71-14.45-3.13-20.89,1.98-4.03,3.2-8.38,6.37-11.3,10.47-2.79,3.92-4.7,8.88-5.57,13.64-1.26,6.89-.71,7.74-7.58,7.79-8.9.07-17.84-.94-26.69-2.07-2.09-.27-5.07-2.54-5.59-4.45-1.32-4.88,2.44-12.92,8.26-13.54,3.64-.39,7.3-.57,10.94-.98,4.69-.53,7.27-2.8,7.29-6.22.02-3.37-2.68-5.8-7.17-6.44-16.63-2.39-26.8,2.39-35.79,17.67-1.65-3.49-3.08-6.24-4.27-9.1-1.36-3.27-3.29-5.68-7.17-5.55-3.7.13-5.8,2.55-6.55,5.73-.64,2.69-.3,5.61-.49,8.42-.09,1.4.14,3.41-.66,4.08-6.94,5.84-13.71,12.02-21.28,16.93-6.53,4.24-14.37,3.67-21.8,1.94-4.28-.99-5.05-3.13-4.99-8.9.05-3.88,2.94-3.16,5.09-3.78,5.46-1.59,11.13-2.69,16.32-4.92,5.36-2.3,7.88-11.83,5.52-17.99-1.59-4.14-6.25-5.58-13.15-4.05-13.41,2.97-25.96,18.27-25.9,31.57.02,4.87-1.32,6.38-6.17,6.97-4.07.5-7.11-1.43-9.69-4.23-4.06-4.4-5.58-9.88-6.29-15.62-.89-7.11-3.42-10.46-8.06-10.36-4.49.1-6.96,3.18-7.59,10.29-.59,6.56-2.3,12.53-7.01,17.38-3.63,3.73-8.53,3.95-11.57-.28-1.77-2.47-2.52-5.89-3.01-9-.93-5.89-1.23-11.88-2.04-17.8-.44-3.19-1.57-6.37-5.56-6.46-4.31-.09-5.23,3.31-5.79,6.62-.68,4.02-1.38,8.06-1.61,12.11-.39,6.65-3.68,11.55-8.69,15.47-3.93,3.08-8.78,2.84-11.51-1.26-2.65-3.98-5.58-8.56-5.98-13.09-1.34-15.16-4.42-30.65,4.06-45.04,1.46-2.47,1.61-5.49-1.35-7.2-3.22-1.87-5.43.25-7.14,2.73-6.29,9.16-10.2,19.16-10.32,30.42-.06,5.17.14,10.34-.11,15.5-.06,1.17-1.26,3.03-2.26,3.28-6.05,1.53-12.17,2.86-18.32,3.91-4.7.8-9.48,1.07-14.51,1.61,1.65-12.18,3.04-23.37,4.73-34.5,1.16-7.65,2.74-15.23,4.11-22.85.79-4.4-.93-7.91-4.35-9.05-3.55-1.18-6.83.42-9.02,4.43-.52.95-1.03,1.93-1.37,2.96-4.54,13.37-9.19,26.7-13.49,40.14-1.84,5.76-2.95,11.75-4.41,17.73-3.31-.37-6.13-.81-8.96-.98-3.31-.2-5.74,1.26-5.89,4.75-.14,3.28,2.13,4.78,5.19,5.16,2.26.28,4.52.53,7.19.84-.4,1.84-.61,3.29-1.03,4.67-2.3,7.53-4.79,15.01-6.93,22.59-.91,3.22-1.56,6.64-1.58,9.97-.03,4.85,2.26,8.76,6.93,10.58,4.68,1.83,9.16.59,12.2-3.17,2.58-3.2,4.88-6.98,6.09-10.88,3.01-9.71,5.32-19.64,7.92-29.48.43-1.63.28-3.57,2.97-3.49,12.4.4,24.19-2.55,35.77-7.01,3.76,8.78,7.4,17.95,17.46,20.79,9.81,2.77,18.88.64,25.48-8.01,9.98,12.98,28.84,15.52,39.88,2.48,12.61,13.25,29.72,12.71,37.05,1.95,25.33,11.2,45.56,3.07,62.68-16.71,3.62,4.08,7.41,6.99,4.67,13.31-2.39,5.54,2.22,10.12,8.44,9.38,5.66-.68,9.81-3.73,12.59-9.02,1.22.37,1.99.62,2.76.83,14.14,3.83,27.91,4.03,40.94-3.97.9-.55,2.62-.05,3.87.3,5.3,1.46,10.48,3.74,15.86,4.42,7.98,1.01,14.33-3.08,19.52-8.84,12.75,11.66,34.1,8.9,43-7.09-1.15,0-2.18-.08-3.19.01Zm-188.37-19.97c-.11,5.45-3,7.54-10.38,7.77,3.19-2.39,6.38-4.77,10.38-7.77Z"/>
      <path class="cls-1" d="m313.01,82.09c-8.32.19-9.92-1.09-12.1-9.18-1.33-4.95-1.73-10.15-3.01-15.11-.54-2.11-2.13-5.4-3.51-5.55-3.6-.38-5.51-2.64-8.07-4.43-2.07-1.45-4.75-2.39-7.28-2.75-14.24-2.05-31.76,8.55-36.49,22.08-3,8.59-2.68,20.17,9.16,25.16.39.17.71.52,1.06.79-.01.37-.02.74-.03,1.11-4.44.27-8.92,1.02-13.32.72-7-.48-9.43-3.24-10.16-10.2-.09-.83-.09-1.68-.09-2.51-.12-14.26-.23-28.52-.33-42.77,0-.9.17-1.8.27-2.83,13.07-.41,25.69-1.54,36.15-10.55-12.33.53-24.66,1.05-36.85,1.57-1.1-7.67-2.08-14.78-3.17-21.88-.44-2.83-1.34-5.64-4.84-5.74-3.46-.1-4.73,2.54-5.2,5.4-.85,5.19-1.55,10.42-2.12,15.65-.69,6.4-.61,6.41-6.8,7.09-.48.05-1.1-.03-1.39.23-.99.88-2.36,1.78-2.61,2.89-.15.66,1.37,2.13,2.41,2.53,1.87.71,3.95.88,6.55,1.4-.33,3.5-.65,6.81-.94,10.12-1.12,12.77-2.54,25.51-3.21,38.3-.42,7.93.09,7.96-8.07,9.12-.24.03-.48.06-.71.09-7.12.91-11.9-3.04-11.98-10.23-.07-5.39.3-10.78.42-16.17.07-2.99.31-6.02-.09-8.96-.15-1.13-1.81-2.82-2.83-2.85-1-.03-2.85,1.63-2.96,2.69-.47,4.56-2.82,8.09-5.47,11.52-3.88,5.02-7.75,10.07-11.8,14.95-1.47,1.77-3.45,3.12-5.86,5.24-1.06-13.61-10.53-17.24-20.69-20.13-2.19-.62-4.36-1.31-6.49-2.11-8.67-3.24-7.32-2.53-7.51-10.29-.02-.72-.09-1.44-.22-2.14-.54-3.1-1.47-6.05-5.26-6.26-3.74-.21-5.03,2.5-5.99,5.56-1.5,4.79-2.95,9.6-4.76,14.27-3.57,9.18-8.95,17.19-16.33,23.78-1.13,1.01-2.58,1.66-4.23,2.7-.29-1.27-.5-1.72-.47-2.16.39-7.89.87-15.77,1.2-23.66.16-3.93.41-7.92-.08-11.79-.19-1.53-2.23-3.88-3.51-3.95-1.37-.07-3.75,1.92-4.11,3.4-1.52,6.23-5.27,10.8-10.16,14.39-7.12,5.24-14.61,9.96-21.79,15.11-1.44,1.03-3.17,3.02-3.09,4.48.13,2.63,2.94,3.25,5.02,2.7,4-1.07,8.08-2.3,11.68-4.27,4.13-2.25,7.77-5.37,12.11-8.45-.22,2.38-.49,4.35-.56,6.32-.14,3.58-.48,7.2-.14,10.74.47,4.89,3.4,8.25,8.2,9.34,7.05,1.61,13.78,1.04,19.65-3.93,7.41-6.26,12.88-13.81,16.01-23.01.3-.87.65-1.73,1.02-2.71,7.14,3.06,14.06,6.01,20.96,8.99.48.21.85.69,1.85,1.54-3.64.66-6.68,1.05-9.64,1.78-4.17,1.03-6.61,3.62-6.89,6.88-.3,3.46,1.81,6.48,5.76,8.25,8.56,3.84,21.88-.51,26.62-8.62.56-.96,1.44-2.24,2.34-2.4,8.15-1.43,12.44-7.61,17.04-13.45.74-.94,1.43-1.93,2.14-2.9-.72,9.29.81,17.4,9.12,22.32,9.09,5.38,15.74.44,21.49-6.93.53,1.46.83,2.23,1.09,3.01,3.93,11.55,11.56,16.46,23.6,15.21,10.82-1.12,19.62-6.49,27.99-12.96,1.54-1.19,3.88-2.16,5.73-1.97,8.46.85,14.89-2.63,20.34-8.62,1.12-1.23,2.19-2.5,3.48-3.98.83,1.31,1.52,2.41,2.22,3.49,2.45,3.82,5.86,6.28,10.29,7.27,11.24,2.51,25.29-3.37,32.18-13.71-1.4.09-2.54.14-3.67.24-6.08.57-12.14,1.52-18.23,1.66Zm-29.24-9.22c-1.29,2.26-3.08,4.27-4.84,6.22-6.27,6.93-15.76,7.57-22.9,1.45-1.02-.87-1.64-2.58-1.79-3.98-.17-1.48.27-3.09.74-4.56,2.85-8.97,15.28-16.49,24.51-14.89,4.88.85,6.91,3.03,7.67,7.77-1.11,2.68-1.97,5.5-3.39,7.99Z"/>
      <path class="cls-1" d="m72.6,12.08c1.35-1.42,2.05-3.45,3.09-5.18.68-1.14,1.44-2.24,2.19-3.42-.61-.12-1.43-.06-1.97-.43-4.36-3.01-8.14-1.45-11.26,1.81-3.71,3.86-7.5,7.8-10.36,12.28-4.43,6.95-8.29,14.3-12.05,21.65-5.67,11.08-11.05,22.3-16.95,34.27-.64-1.85-1.04-2.94-1.39-4.04-4.08-12.9-8.1-25.81-12.24-38.69-1.43-4.43-3.87-6.21-7.14-5.63C1.43,25.24-.19,27.71.02,32.21c.28,6.22.61,12.45,1.24,18.64,1.71,17.03,7.09,33.21,11.74,49.55,1.5,5.28,4.77,7.89,9.35,8.01,4.6.12,7.96-2.64,10.02-7.79,8.96-22.46,17.95-44.9,27.03-67.31,3.17-7.82,7.31-15.06,13.21-21.24Z"/>
      <path class="cls-1" d="m181.84,41.62c3.55.13,6.24-2.32,6.35-5.8.11-3.44-2.55-6.19-5.99-6.2-3.39-.01-6.43,3.19-6.46,6.82-.03,2.97,2.42,5.04,6.09,5.18Z"/>
      <path class="cls-1" d="m84.6,37.74c3.5.27,6.33-2.2,6.51-5.69.17-3.36-2.18-6.05-5.52-6.32-3.48-.28-6.35,2.22-6.54,5.68-.17,3.32,2.23,6.06,5.55,6.32Z"/>
    </g>
  </g>
</svg>