<svg width="781" height="125" viewBox="0 0 781 125" fill="none" xmlns="http://www.w3.org/2000/svg">
<g clip-path="url(#clip0_1_2)">
<path d="M5.81 24.4L23.91 94.54C23.94 94.66 24.1 94.67 24.15 94.57L70.32 2.69L29.5 87.23C29.5 87.23 63.49 95.73 84 55.72C84.05 55.63 84.18 55.66 84.17 55.76C83.67 60.33 79.88 95.96 83.46 98.54C87.28 101.29 115.02 85.44 119.52 53.13C119.52 53.11 119.55 53.1 119.55 53.13C119.74 54.96 123.45 69.37 138.26 72.63C151.79 75.61 152.63 99.38 128.63 97.39C128.63 97.39 172.12 94.71 185.27 56.65C185.27 56.65 178.39 96.4 192.61 93.8C192.61 93.8 201.93 96.4 210.8 85.85C219.67 75.3 222.12 2.69 222.12 2.69C222.12 2.69 217.69 95.63 227.62 100.68C237.55 105.73 259.87 92.88 264.16 89.06C264.16 89.06 235.57 82.95 259.88 55.28C259.88 55.28 276.7 38.94 292.13 54.45C292.13 54.45 298.86 84.48 266.91 88.3C266.91 88.3 292.48 89.71 294.2 58.3C294.2 58.3 295.23 85.82 306.12 84.67C306.12 84.67 323.32 85.36 331.46 80.31" stroke="#212B18" stroke-width="12" stroke-miterlimit="10"/>
<path d="M206.83 29.29C206.83 29.29 245.66 30.36 260.03 25.77" stroke="#212B18" stroke-width="12" stroke-miterlimit="10"/>
<path d="M86.85 33.89C89.3297 33.89 91.34 31.8798 91.34 29.4C91.34 26.9202 89.3297 24.91 86.85 24.91C84.3702 24.91 82.36 26.9202 82.36 29.4C82.36 31.8798 84.3702 33.89 86.85 33.89Z" stroke="#212B18" stroke-width="12" stroke-miterlimit="10"/>
<path d="M183.73 37.67C186.21 37.67 188.22 35.6598 188.22 33.18C188.22 30.7002 186.21 28.69 183.73 28.69C181.25 28.69 179.24 30.7002 179.24 33.18C179.24 35.6598 181.25 37.67 183.73 37.67Z" stroke="#212B18" stroke-width="12" stroke-miterlimit="10"/>
<path d="M415.34 15.38L388.13 122.69C388.13 122.69 405.1 80.5 382.47 78.3C379.49 78.01 409.22 86.85 453.86 70.68C453.86 70.68 446.22 43.81 462.73 23.63C462.73 23.63 436.44 60.01 470.07 93.03C470.07 93.03 490.86 104.51 495.75 54.44C495.75 54.44 492.39 97.31 514.4 93.95C536.41 90.59 534.88 61.59 534.88 61.59C534.88 61.59 535.48 108.58 564.23 89.98C564.23 89.98 570.8 46.87 596.18 51.92C596.18 51.92 608.41 70.42 571.72 71.95C571.72 71.95 563.31 96.71 592.05 94.73C620.79 92.75 632.44 64.6 631.2 56.18C631.2 56.14 631.24 56.12 631.27 56.15C632.97 58.02 658.89 87.09 638.37 97.41C631.92 100.65 650.87 96.61 649.38 70.7C649.38 70.7 648.81 49.37 680.11 52.81C680.11 52.81 636.2 49.6 656.03 85.6C656.03 85.6 670.25 98.67 702.35 82.5C702.35 82.5 702.81 45.58 736.4 51.66C736.4 51.66 701.32 44.55 705.67 83.07C705.67 83.07 723.78 96.83 737.08 80.32C737.08 80.32 746.14 61.69 744.07 59.22C742.63 57.51 739.1 84.1 753.47 86.09C767.84 88.08 777.01 80.97 777.01 80.97" stroke="#212B18" stroke-width="12" stroke-miterlimit="10"/>
</g>
<defs>
<clipPath id="clip0_1_2">
<rect width="780.7" height="124.93" fill="white"/>
</clipPath>
</defs>
</svg>
